<?xml version="1.0" encoding="UTF-8"?>
<svg width="303px" height="211px" viewBox="0 0 303 211" version="1.1" xmlns="http://www.w3.org/2000/svg" xmlns:xlink="http://www.w3.org/1999/xlink">
    <!-- Generator: Sketch 52.5 (67469) - http://www.bohemiancoding.com/sketch -->
    <title>Group</title>
    <desc>Created with Sketch.</desc>
    <g id="Page-1" stroke="none" stroke-width="1" fill="none" fill-rule="evenodd">
        <g id="Group" fill="#14FAE7">
            <polygon id="Rectangle" points="77.5 59.4289322 135.5 0.5 57 0.5"></polygon>
            <polygon id="Rectangle-Copy-76" transform="translate(151.500000, 34.500000) rotate(-180.000000) translate(-151.500000, -34.500000) " points="152 64.5 211 4.57106781 92 4.5"></polygon>
            <polygon id="Rectangle-Copy-77" points="151.5 211 218 78.5710678 85 78.5"></polygon>
            <polygon id="Rectangle-Copy-71" transform="translate(206.250000, 29.964466) scale(-1, 1) translate(-206.250000, -29.964466) " points="187.5 59.4289322 245.5 0.5 167 0.5"></polygon>
            <polygon id="Rectangle-Copy-72" transform="translate(32.000000, 34.500000) rotate(-180.000000) translate(-32.000000, -34.500000) " points="20 64.5 64 4.57106781 2.48689958e-14 4.5"></polygon>
            <polygon id="Rectangle-Copy-75" transform="translate(271.000000, 34.500000) scale(-1, 1) rotate(180.000000) translate(-271.000000, -34.500000) " points="259 64.5 303 4.57106781 239 4.5"></polygon>
            <polygon id="Rectangle-Copy-73" transform="translate(65.500000, 137.000000) rotate(-360.000000) translate(-65.500000, -137.000000) " points="128 195.5 70 78.5710678 3 78.5"></polygon>
            <polygon id="Rectangle-Copy-74" transform="translate(236.500000, 137.000000) scale(-1, 1) rotate(360.000000) translate(-236.500000, -137.000000) " points="299 195.5 241 78.5710678 174 78.5"></polygon>
        </g>
    </g>
</svg>